<svg width="121" height="80" viewBox="0 0 121 80" fill="none" xmlns="http://www.w3.org/2000/svg">
<path fill-rule="evenodd" clip-rule="evenodd" d="M11.7769 0C14.0534 0 15.8988 1.87105 15.8988 4.1791V75.8209C15.8988 78.129 14.0534 80 11.7769 80C9.50045 80 7.655 78.129 7.655 75.8209V4.1791C7.655 1.87105 9.50045 0 11.7769 0Z" fill="white"/>
<path d="M0.588846 59.1045C0.588846 58.1153 1.37975 57.3134 2.35538 57.3134H21.7873C22.7629 57.3134 23.5538 58.1153 23.5538 59.1045V63.2836C23.5538 64.2728 22.7629 65.0746 21.7873 65.0746H2.35538C1.37975 65.0746 0.588846 64.2728 0.588846 63.2836V59.1045Z" fill="white"/>
<path fill-rule="evenodd" clip-rule="evenodd" d="M2.35538 56.7164H21.7873C23.0882 56.7164 24.1427 57.7856 24.1427 59.1045V63.2836C24.1427 64.6025 23.0882 65.6716 21.7873 65.6716H2.35538C1.05454 65.6716 0 64.6025 0 63.2836V59.1045C0 57.7856 1.05454 56.7164 2.35538 56.7164ZM2.35538 57.3134C1.37975 57.3134 0.588846 58.1153 0.588846 59.1045V63.2836C0.588846 64.2728 1.37975 65.0746 2.35538 65.0746H21.7873C22.7629 65.0746 23.5538 64.2728 23.5538 63.2836V59.1045C23.5538 58.1153 22.7629 57.3134 21.7873 57.3134H2.35538Z" fill="black"/>
<path fill-rule="evenodd" clip-rule="evenodd" d="M33.5642 0C35.8407 0 37.6862 1.87105 37.6862 4.1791V75.8209C37.6862 78.129 35.8407 80 33.5642 80C31.2878 80 29.4423 78.129 29.4423 75.8209V4.1791C29.4423 1.87105 31.2878 0 33.5642 0Z" fill="white"/>
<path d="M22.3762 37.6119C22.3762 36.6228 23.1671 35.8209 24.1427 35.8209H43.5746C44.5503 35.8209 45.3412 36.6228 45.3412 37.6119V41.791C45.3412 42.7802 44.5503 43.5821 43.5746 43.5821H24.1427C23.1671 43.5821 22.3762 42.7802 22.3762 41.791V37.6119Z" fill="white"/>
<path fill-rule="evenodd" clip-rule="evenodd" d="M24.1427 35.2239H43.5746C44.8755 35.2239 45.93 36.2931 45.93 37.6119V41.791C45.93 43.1099 44.8755 44.1791 43.5746 44.1791H24.1427C22.8419 44.1791 21.7873 43.1099 21.7873 41.791V37.6119C21.7873 36.2931 22.8419 35.2239 24.1427 35.2239ZM24.1427 35.8209C23.1671 35.8209 22.3762 36.6228 22.3762 37.6119V41.791C22.3762 42.7802 23.1671 43.5821 24.1427 43.5821H43.5746C44.5503 43.5821 45.3412 42.7802 45.3412 41.791V37.6119C45.3412 36.6228 44.5503 35.8209 43.5746 35.8209H24.1427Z" fill="black"/>
<path fill-rule="evenodd" clip-rule="evenodd" d="M87.4401 37.542C88.8199 38.9409 88.8199 41.209 87.4401 42.6079L67.1564 63.1729C78.4959 72.1714 94.9365 71.3782 105.377 60.7933C116.662 49.3509 116.662 30.7991 105.377 19.3567C94.0908 7.9143 75.7928 7.9143 64.507 19.3567C54.0669 29.9416 53.2845 46.6103 62.1599 58.1071L82.4436 37.542C83.8233 36.1431 86.0604 36.1431 87.4401 37.542ZM59.5105 14.2909C73.5558 0.0506802 96.3278 0.0506802 110.373 14.2909C124.418 28.531 124.418 51.6189 110.373 65.8591C96.3278 80.0993 73.5558 80.0993 59.5105 65.8591C45.4651 51.6189 45.4651 28.531 59.5105 14.2909Z" fill="white"/>
</svg>
