<svg width="20" height="18" viewBox="0 0 20 18" fill="none" xmlns="http://www.w3.org/2000/svg">
<path d="M14.023 6.348H19.015L15.834 3.165C14.8099 2.14087 13.5342 1.40439 12.1352 1.02961C10.7362 0.654818 9.26322 0.654928 7.86428 1.02992C6.46534 1.40492 5.18977 2.14159 4.16581 3.16587C3.14184 4.19015 2.40557 5.46595 2.03101 6.865M0.985009 16.644V11.652M0.985009 11.652H5.97701M0.985009 11.652L4.16501 14.835C5.18912 15.8591 6.4648 16.5956 7.8638 16.9704C9.26279 17.3452 10.7358 17.3451 12.1347 16.9701C13.5337 16.5951 14.8092 15.8584 15.8332 14.8341C16.8572 13.8099 17.5934 12.5341 17.968 11.135M19.015 1.356V6.346" stroke="white" stroke-width="1.5" stroke-linecap="round" stroke-linejoin="round"/>
</svg>
